<svg xmlns="http://www.w3.org/2000/svg" viewBox="0 0 410 404"><defs><linearGradient id="b" x1="-.828%" x2="57.636%" y1="7.652%" y2="78.411%"><stop offset="0%" stop-color="#41D1FF"/><stop offset="100%" stop-color="#BD34FE"/></linearGradient><linearGradient id="c" x1="43.376%" x2="50.316%" y1="2.242%" y2="89.03%"><stop offset="0%" stop-color="#FFEA83"/><stop offset="8.333%" stop-color="#FFDD35"/><stop offset="100%" stop-color="#FFA800"/></linearGradient></defs><path fill="url(#b)" d="M399.641 59.525 215.643 388.545c-5.567 9.823-19.942 9.906-25.666.154L10.36 59.556c-6.069-10.014 1.104-22.732 12.815-21.577l177.103 17.238a14.998 14.998 0 0 0 11.146-3.448l135.184-112.58c9.441-7.865 23.257-1.636 24.13 10.747l14.37 200.075a15 15 0 0 0 3.354 8.959l44.462 55.5c7.16 8.951-.509 21.96-11.963 20.822L216.45 197.796a15 15 0 0 0-13.768 8.172l-59.005 117.377c-4.77 9.488-18.537 9.213-23.032-.49L25.18 75.31c-4.357-9.523 3.678-19.62 13.82-18.33l131.014 16.386a15 15 0 0 0 12.547-4.931l121.88-134.218c8.308-9.152 23.36-2.736 22.223 10.24l-11.25 132.224a15 15 0 0 0 4.93 12.548l78.857 76.988c8.75 8.553-.615 23.151-11.56 18.408L233.012 174.642a15 15 0 0 0-13.725 5.157l-68.4 88.064c-6.829 8.797-20.556 5.597-22.124-5.479l-16.352-120.494c-1.506-11.088 11.02-18.29 19.206-11.289l89.772 77.047a15 15 0 0 0 19.986-.408L396.18 81.114c9.097-8.96 24.398 1.07 19.426 12.704l-69.56 159.742c-4.42 10.148-18.763 11.274-24.626 1.86L202.934 65.218c-6.473-10.88 4.54-24.147 16.3-19.477l167.87 66.585c11.634 4.607 12.802 20.857 1.756 26.683L213.288 244.96a15 15 0 0 0-3.814 2.865l-79.317 90.707c-7.847 8.98-22.556 2.177-20.872-10.106l22.27-159.571a15 15 0 0 0-5.135-13.552L20.29 79.61c-9.508-8.312-4.061-23.923 8.07-24.437l138.722-5.823c11.538-.484 18.482 12.828 10.926 21.205l-84.296 93.66c-7.286 8.095-2.318 21.066 8.203 22.053l145.506 13.409c10.37.955 16.602 12.427 10.784 21.208l-97.512 145.05c-6.733 10.014-22.61 5.177-22.59-6.871l.157-98.323a15 15 0 0 0-6.31-12.116L17.284 126.44c-10.471-7.474-5.367-23.673 7.236-23.841l171.537-2.324c11.102-.151 17.537 12.696 10.315 21.331l-62.896 73.7a15 15 0 0 0 5.106 22.77l123.16 64.134c10.23 5.325 10.48 20.032.422 25.808l-131.576 75.49c-9.838 5.644-21.636-4.664-16.73-15.3l63.603-139.761a15 15 0 0 0-3.093-16.984L7.204 54.217C-.81 46.516 6.523 32.36 17.903 34.534l147.941 28.58c10.924 2.109 15.206 15.322 7.173 23.003l-104.12 100.33c-8.274 7.977-1.835 21.814 9.452 19.955l155.48-25.924c11.113-1.852 17.223 12.119 8.531 20.025l-115.88 107.974c-8.32 7.752-2.543 21.537 8.666 20.884l160.062-9.39c11.199-.657 16.7 13.697 7.557 20.667l-137.017 104.17c-9.26 7.034-22.062-2.4-18.396-13.251l51.784-152.207c3.586-10.542 18.21-11.87 24.638-2.312l92.799 139.824c6.996 10.535-3.812 23.936-15.307 19.225L14.024 290.076c-11.004-4.31-10.514-19.85.745-23.337L378.18 167.34c11.202-3.426 19.054 10.392 11.033 18.719l-129.52 133.97c-8.223 8.513-22.513.928-20.332-10.345l27.765-135.464c2.294-11.19 17.465-13.941 23.927-4.277l86.76 129.467c6.597 9.842-4.187 22.3-15.08 16.96L19.67 220.152c-10.895-5.34-9.438-21.415 2.379-24.082l170.103-37.953c11.467-2.559 18.008 12.782 9.282 20.84l-71.727 66.005c-8.775 8.08-1.979 22.313 10.061 20.081l169.865-32.161c11.01-2.084 17.516 12.3 8.843 20.065l-116.08 104.786c-8.883 8.019-22.675-.078-20.787-11.889l21.622-133.043c1.846-11.36 16.788-14.61 23.91-5.194l94.97 122.975c7.69 9.951-2.479 24.308-13.799 19.322L27.5 238.187c-11.195-4.55-10.149-20.875 1.4-24.233L393.58 122.79c11.417-3.45 19.52 10.9 11.18 19.453L274.3 280.693c-8.276 8.528-22.714 1.46-20.228-10.571l37.778-180.208c2.351-11.213 17.838-13.224 23.873-3.361l84.628 136.806c5.951 9.619-5.049 21.26-15.67 16.641L32.48 215.84c-10.62-4.62-9.48-20.34 1.787-23.026l186.265-45.384c11.09-2.703 18.478 12.46 9.746 20.735l-79.208 74.593c-8.781 8.27-1.789 22.592 10.3 20.108l185.183-39.984c11.05-2.384 17.738 12.117 9.308 20.401L215.92 410.588c-7.68 7.412-20.585.984-19.707-9.433l9.668-115.257c.926-11.033 15.168-14.635 22.283-6.274l89.371 104.003c7.51 8.738-.046 22.334-11.035 20.137L32.463 322.332c-10.987-2.11-13.553-16.944-3.633-22.227L382.64 130.795c10.617-5.545 22.33 5.771 16.864 16.705L235.21 398.94c-5.381 10.46-20.596 10.377-25.87-.142L8.566 77.466c-5.273-10.52 4.633-22.72 15.71-18.799l169.877 60.958c11.062 3.973 12.646 19.318 2.43 25.225L31.174 233.026c-10.216 5.908-8.284 21.794 3.616 23.639l185.478 28.716c11.9 1.844 16.79 16.91 7.757 25.237L28.373 431.547c-9.033 8.326-23.733 2.502-23.53-10.19l3.288-203.774c.193-11.973 15.954-16.847 23.198-7.07l103.917 136.838c7.244 9.777-1.978 23.31-13.538 20.17L3.352 328.3c-11.56-3.14-13.307-18.717-2.753-24.698L377.247 79.963c10.555-5.98 23.427 4.444 18.95 16.15L226.771 396.884c-4.477 11.706-20.474 11.838-25.23.211L1.886 75.968C-2.871 64.341 9.006 52.3 20.843 56.202l176.996 58.068c11.837 3.902 14.267 19.218 4.628 26.553L24.185 293.297c-9.64 7.335-4.71 22.853 7.734 23.81l186.685 14.131c12.444.944 19.432 15.988 10.6 25.388L29.45 456.26c-8.832 9.4-24.458 4.237-24.39-8.026l1.272-215.37c.07-12.263 16.154-17.827 24.61-8.837l123.658 134.013c8.456 8.99-1.297 23.83-13.15 20.307L6.684 332.892c-11.853-3.523-14.698-19.316-4.517-26.785L381.42 63.734c10.18-7.469 24.27 2.5 20.771 14.519L236.947 399.73c-3.499 12.019-20.091 13.342-26.188 2.221L.88 76.934C-5.218 65.813 6.062 52.247 18.058 55.261l178.79 45.908c11.996 3.014 15.545 18.884 6.02 26.938L20.674 295.007c-9.525 8.055-3.414 23.267 8.596 22.956l187.504-4.732c12.01-.303 20.328 14.122 12.064 24.184L32.343 463.665c-8.264 10.063-24.535 6.251-25.096-6.513l-8.245-186.433c-.56-12.764 15.575-19.465 25.115-10.798l137.598 125.752c9.54 8.667 1.495 24.072-11.019 22.503L5.166 361.272c-12.514-1.569-17.337-17.657-7.235-25.937L371.94 62.831c10.102-8.28 25.324.73 22.225 13.417l-60.27 244.646c-3.1 12.687-20.81 14.774-27.835 3.392L21.003 74.155c-7.024-11.382 4.889-25.629 18.096-20.23l207.658 82.744c13.207 5.399 15.82 23.082 4.271 32.253L18.628 314.12c-11.549 9.171-6.418 27.43 8.673 28.578l212.254 16.467c15.091 1.148 23.487 19.212 13.272 31.214L30.904 516.382c-10.215 12.002-28.901 6.002-30.504-9.51l-21.63-211.85C-23.833 269.512-1.61 255.87 11.4 265.54l164.074 122.056c13.01 9.67 8.675 30.602-7.307 31.962L5.255 433.17c-15.982 1.36-24.495-18.411-12.533-30.909L366.62 51.373c11.962-12.498 33.176-2.289 30.054 15.07l-44.487 248.51c-3.123 17.36-25.575 21.784-35.473 6.926L27.072 60.784c-9.898-14.858 6.536-33.022 21.75-24.544l252.9 140.274c15.214 8.478 16.89 30.47 2.915 40.89L16.738 372.736c-13.975 10.42-12.67 33.793 3.848 40.855l270.922 117.163c16.518 7.062 32.785-10.62 24.87-26.965L140.31 156.452c-7.915-16.346 8.352-33.727 24.87-26.665l270.922 117.163c16.518 7.062 17.823 30.435 3.848 40.855L119.596 476.404c-13.975 10.42-12.299 32.412 2.915 40.89l252.9 140.274c15.214 8.478 31.648-9.686 21.75-24.544L45.98 82.378c-9.898-14.858 8.703-33.618 24.685-27.358l282.437 112.28c15.982 6.26 19.944 27.191 7.983 39.689L-6.036 402.261c-11.962 12.498-4.449 32.269 11.533 30.909l168.912-14.612c15.982-1.36 20.317 22.292 7.307 31.962L17.643 572.576c-13.01 9.67-35.233-3.972-30.409-20.461l62.918-213.79c4.823-16.49 25.456-20.792 37.184-9.462l181.57 177.902c11.728 11.33 34.244 4.33 37.366-13.03l44.487-248.51c3.123-17.36 24.337-27.568 36.299-15.07l338.898 352.978c11.962 12.498 4.829 32.27-11.153 30.909l-212.254-16.467c-15.091-1.148-21.222 19.407-9.673 28.578l210.124 163.198c11.549 9.171 8.936 26.854-4.271 32.253l-207.658 82.744c-13.207 5.399-25.12-8.848-18.096-20.23l187.057-307.599c7.024-11.382-6.803-24.699-17.906-17.349L187.056 494.039c-11.103 7.35-24.263-3.324-20.944-15.77l60.27-244.645c3.318-13.446-11.425-24.73-22.627-15.458L10.37 450.042c-11.201 9.272-26.754-.054-23.926-13.928l27.803-133.56c2.828-13.874-12.189-24.575-23.744-15.795L-66.85 339.64c-11.555 8.78-9.704 26.81 3.29 32.621l208.586 93.038c12.994 5.811 14.911 23.225 3.581 31.865L-11.58 612.38c-11.33 8.64-26.88-1.86-23.3-15.675l59.33-232.702c3.58-13.815-12.55-24.985-24.41-16.363L-208.282 471.38c-11.86 8.622-9.084 27.49 4.6 32.284l232.633 82.924c13.684 4.794 16.53 21.403 4.75 30.69l-194.8 149.21c-11.78 9.287-29.433-.533-26.553-16.482l36.081-193.192c2.88-15.949-13.925-26.841-25.308-15.741l-148.23 142.763c-11.383 11.1-4.364 30.218 11.08 30.218h359.901c6.486 0 11.731-5.245 11.731-11.731V71.256c0-6.486-5.245-11.731-11.731-11.731H20.319C13.833 59.525 8.588 64.77 8.588 71.256z"/></svg>
