<svg xmlns="http://www.w3.org/2000/svg" viewBox="0 0 841.9 595.3"><g fill="#61dafb"><path d="M666.3 296.5c0 39.2-31.8 71-71 71s-71-31.8-71-71 31.8-71 71-71 71 31.8 71 71zm-195.5 0c0 34.5-5.5 67.9-15.3 98.6-45.6-11.1-95.3-17.4-147.1-17.4-51.7 0-101.4 6.3-147 17.4-9.9-30.7-15.4-64.1-15.4-98.6s5.5-67.9 15.3-98.6c45.6 11.1 95.3 17.4 147 17.4 51.8 0 101.5-6.3 147.1-17.4 9.9 30.7 15.4 64.1 15.4 98.6zm-45.2 120.6c-36.7 10.3-77 16-119.9 16s-83.2-5.7-119.9-16c10.1 27.6 23.7 52.2 39.8 73 27.6 7.1 56.7 10.9 86.1 10.9s58.5-3.8 86.1-10.9c16.1-20.8 29.7-45.4 39.8-73zm-239.7-241.2c36.7-10.3 77-16 119.9-16s83.2 5.7 119.9 16c-10.1-27.6-23.7-52.2-39.8-73-27.6-7.1-56.7-10.9-86.1-10.9s-58.5 3.8-86.1 10.9c-16.1 20.8-29.7 45.4-39.8 73zm-46.7 120.6c0 34.5 5.5 67.9 15.3 98.6-45.6 11.1-95.3 17.4-147 17.4-51.7 0-101.4-6.3-147-17.4-9.9-30.7-15.4-64.1-15.4-98.6s5.5-67.9 15.3-98.6c45.6 11.1 95.3 17.4 147 17.4 51.7 0 101.4-6.3 147-17.4 9.9 30.7 15.4 64.1 15.4 98.6zm-45.2 120.6c-36.7 10.3-77 16-119.9 16s-83.2-5.7-119.9-16c10.1 27.6 23.7 52.2 39.8 73 27.6 7.1 56.7 10.9 86.1 10.9s58.5-3.8 86.1-10.9c16.1-20.8 29.7-45.4 39.8-73zm0-241.2c-16.1 20.8-29.7 45.4-39.8 73-36.7-10.3-77-16-119.9-16s-83.2 5.7-119.9 16c10.1-27.6 23.7-52.2 39.8-73 27.6-7.1 56.7-10.9 86.1-10.9s58.5 3.8 86.1 10.9z"/><path d="M421 296.5c0 54.2-43.9 98.1-98.1 98.1s-98.1-43.9-98.1-98.1 43.9-98.1 98.1-98.1 98.1 43.9 98.1 98.1zm92.5-36.4c-2.5-36.5-9.6-71.4-20.7-103.8-31.6 7.3-64.9 11.2-99.5 11.2s-67.9-3.9-99.5-11.2c-11.1 32.4-18.2 67.3-20.7 103.8 32.8 7.7 67.4 11.8 103.2 11.8s70.4-4.1 103.2-11.8zm0 72.8c-32.8-7.7-67.4-11.8-103.2-11.8s-70.4 4.1-103.2 11.8c2.5 36.5 9.6 71.4 20.7 103.8 31.6-7.3 64.9-11.2 99.5-11.2s67.9 3.9 99.5 11.2c11.1-32.4 18.2-67.3 20.7-103.8z"/></g></svg>
